<svg width="1200" height="1200" viewBox="0 0 1200 1200" fill="none" xmlns="http://www.w3.org/2000/svg">
<rect width="1200" height="1200" fill="#E5E5E5"/>
<rect width="1200" height="1200" fill="#5493CA"/>
<path fill-rule="evenodd" clip-rule="evenodd" d="M274.728 828.323C269.301 837.627 272.217 849.558 281.324 855.31L342.51 893.954C352.073 899.993 364.737 896.908 370.45 887.148L469.786 717.448C475.409 707.843 487.792 704.675 497.337 710.402L637.242 794.345C646.948 800.169 659.548 796.784 665.03 786.882L800.037 542.997C805.494 533.141 818.011 529.734 827.71 535.465L884.356 568.938C898.762 577.45 916.629 565.563 914.343 548.986L883.518 325.502C881.734 312.573 868.246 304.789 856.159 309.713L648.05 394.498C632.605 400.79 631.193 422.11 645.673 430.385L697.843 460.196C707.352 465.63 710.722 477.7 705.403 487.274L625.042 631.924C619.551 641.808 606.965 645.179 597.269 639.361L457.363 555.418C447.808 549.685 435.412 552.866 429.797 562.49L274.728 828.323Z" fill="white"/>
<path d="M787.755 200H412.245C295.025 200 200 295.582 200 413.489V786.511C200 904.417 295.025 1000 412.245 1000H787.755C904.975 1000 1000 904.417 1000 786.511V413.489C1000 295.582 904.975 200 787.755 200Z" stroke="#FC8B51" stroke-width="54"/>
</svg>
